<?xml version="1.0" standalone="no"?>
<!DOCTYPE svg PUBLIC "-//W3C//DTD SVG 20010904//EN"
 "http://www.w3.org/TR/2001/REC-SVG-20010904/DTD/svg10.dtd">
<svg version="1.0" xmlns="http://www.w3.org/2000/svg"
 width="500.000000pt" height="500.000000pt" viewBox="0 0 500.000000 500.000000"
 preserveAspectRatio="xMidYMid meet">

<g transform="translate(0.000000,500.000000) scale(0.100000,-0.100000)"
fill="#000000" stroke="none">
<path d="M2553 4130 c-45 -10 -80 -35 -104 -73 -16 -25 -19 -45 -16 -91 3 -54
7 -62 44 -97 117 -108 302 -6 262 145 -13 48 -60 102 -98 111 -14 3 -33 7 -41
9 -8 2 -30 0 -47 -4z m98 -79 c23 -24 29 -38 29 -74 0 -63 -33 -97 -94 -97
-37 0 -48 5 -70 31 -57 67 -15 169 69 169 27 0 44 -8 66 -29z"/>
<path d="M1620 3980 l0 -150 85 0 c84 0 85 0 85 25 0 23 -3 25 -50 25 l-50 0
0 125 0 125 -35 0 -35 0 0 -150z"/>
<path d="M1820 3980 l0 -150 30 0 30 0 0 150 0 150 -30 0 -30 0 0 -150z"/>
<path d="M1930 3981 l0 -151 79 0 c69 0 84 3 106 23 37 31 39 91 6 118 -22 18
-23 21 -7 37 21 25 20 64 -3 93 -17 21 -30 24 -100 27 l-81 4 0 -151z m133 78
c16 -26 1 -49 -33 -49 -28 0 -30 3 -30 36 0 32 2 35 26 32 15 -2 32 -10 37
-19z m11 -115 c9 -8 16 -19 16 -24 0 -18 -33 -40 -61 -40 -27 0 -29 2 -29 40
0 38 2 40 29 40 16 0 37 -7 45 -16z"/>
<path d="M2180 3981 l0 -151 35 0 35 0 0 125 c0 117 1 125 19 125 35 0 69 -18
76 -40 10 -30 -19 -68 -54 -72 l-29 -3 40 -67 c35 -59 44 -68 69 -68 16 0 29
2 29 5 0 3 -13 26 -29 51 l-29 46 31 27 c41 37 42 100 3 139 -24 24 -35 27
-111 31 l-85 3 0 -151z"/>
<path d="M2910 3980 l0 -150 79 0 c88 0 134 21 160 75 21 43 19 115 -5 156
-28 49 -75 69 -161 69 l-73 0 0 -150z m139 89 c39 -14 51 -35 51 -94 0 -61
-32 -95 -90 -95 l-40 0 0 100 c0 98 0 100 24 100 12 0 37 -5 55 -11z"/>
<path d="M3210 3980 l0 -150 85 0 c84 0 85 0 85 25 0 24 -3 25 -55 25 l-55 0
0 34 0 35 53 3 c48 3 52 5 55 31 3 27 2 27 -52 27 l-56 0 0 35 0 35 55 0 c52
0 55 1 55 25 0 25 -1 25 -85 25 l-85 0 0 -150z"/>
<path d="M1320 3628 c-33 -17 -51 -35 -67 -68 -28 -55 -29 -82 -3 -136 55
-112 204 -118 274 -11 l18 27 -32 0 c-20 0 -44 -10 -62 -25 -80 -68 -186 19
-144 118 17 41 41 57 89 57 24 0 42 -8 58 -25 16 -17 35 -25 57 -25 l34 0 -20
33 c-24 36 -92 77 -131 77 -15 0 -47 -10 -71 -22z"/>
<path d="M2805 3631 c-98 -44 -119 -175 -42 -249 74 -70 199 -56 242 28 l16
30 -33 0 c-22 0 -41 -9 -57 -25 -55 -59 -151 -10 -151 78 0 61 33 97 90 97 30
0 47 -6 66 -25 16 -16 36 -25 55 -25 l31 0 -19 33 c-20 35 -92 77 -133 77 -14
0 -43 -9 -65 -19z"/>
<path d="M3276 3640 c-61 -19 -106 -83 -106 -152 0 -135 167 -201 267 -106 78
75 57 200 -41 248 -45 21 -73 24 -120 10z m118 -76 c38 -39 37 -105 -3 -145
-90 -90 -217 42 -135 140 35 42 98 44 138 5z"/>
<path d="M4090 3632 c-41 -20 -58 -59 -44 -99 6 -20 25 -36 62 -54 66 -32 76
-42 67 -68 -10 -32 -62 -29 -75 5 -8 20 -16 25 -38 22 -22 -2 -26 -7 -24 -28
8 -53 73 -87 133 -70 44 13 58 27 65 67 9 49 -11 79 -73 109 -60 28 -74 48
-50 71 17 18 57 9 57 -13 0 -9 11 -14 34 -14 35 0 35 0 24 31 -7 21 -22 36
-44 45 -43 18 -52 18 -94 -4z"/>
<path d="M770 3490 l0 -150 30 0 30 0 0 125 0 125 34 0 c19 0 42 -7 50 -16 35
-34 9 -94 -40 -94 -13 0 -24 -3 -23 -7 0 -5 17 -35 38 -68 32 -51 42 -60 70
-63 l33 -3 -32 56 c-27 46 -30 59 -19 66 8 5 17 9 20 9 11 0 29 51 29 81 0 20
-10 40 -29 60 -28 27 -34 29 -110 29 l-81 0 0 -150z"/>
<path d="M1030 3490 l0 -150 85 0 c84 0 85 0 85 25 0 24 -3 25 -55 25 l-55 0
0 40 0 40 55 0 c52 0 55 1 55 25 0 24 -3 25 -55 25 l-55 0 0 35 0 35 55 0 c52
0 55 1 55 25 0 25 -1 25 -85 25 l-85 0 0 -150z"/>
<path d="M1580 3490 l0 -150 80 0 c79 0 80 0 80 25 0 23 -3 25 -50 25 l-50 0
0 125 0 125 -30 0 -30 0 0 -150z"/>
<path d="M1810 3503 c-70 -175 -67 -163 -30 -163 26 0 33 5 41 30 11 29 13 30
70 30 58 0 60 -1 70 -30 9 -25 16 -30 45 -30 l34 0 -15 38 c-8 20 -34 87 -58
147 -40 103 -44 110 -72 113 -30 3 -31 1 -85 -135z m120 -45 c0 -5 -18 -8 -40
-8 -22 0 -40 2 -40 4 0 2 6 19 14 37 7 19 16 43 20 54 6 17 11 12 27 -30 10
-27 19 -53 19 -57z"/>
<path d="M2070 3490 l0 -150 30 0 30 0 1 113 0 112 41 -113 c35 -97 43 -113
61 -110 15 2 28 26 58 108 l38 105 0 -107 1 -108 30 0 30 0 0 151 0 150 -42
-3 -43 -3 -36 -105 -36 -104 -20 54 c-11 30 -29 79 -39 108 -19 52 -19 52 -61
52 l-43 0 0 -150z"/>
<path d="M2483 3490 l-62 -150 34 0 c28 0 35 5 44 30 10 29 12 30 69 30 57 0
60 -1 72 -30 10 -25 18 -30 45 -30 l33 0 -59 148 c-54 138 -60 147 -86 150
-28 3 -30 0 -90 -148z m101 37 c32 -77 32 -77 -14 -77 -32 0 -41 3 -37 14 3 8
11 32 18 55 7 23 14 41 15 41 2 0 10 -15 18 -33z"/>
<path d="M3060 3490 l0 -150 35 0 35 0 0 150 0 150 -35 0 -35 0 0 -150z"/>
<path d="M3520 3490 l0 -150 30 0 29 0 3 102 3 101 68 -101 c60 -92 70 -102
97 -102 l30 0 0 150 0 150 -30 0 -29 0 -3 -102 -3 -101 -68 101 c-60 92 -70
102 -97 102 l-30 0 0 -150z"/>
<path d="M3830 3490 l0 -150 85 0 c84 0 85 0 85 25 0 23 -3 25 -50 25 l-50 0
0 40 0 40 50 0 c47 0 50 2 50 25 0 23 -3 25 -50 25 l-50 0 0 35 0 35 50 0 c47
0 50 2 50 25 0 25 -1 25 -85 25 l-85 0 0 -150z"/>
<path d="M3415 2786 c-324 -62 -598 -210 -810 -438 -116 -125 -110 -89 -113
-625 -2 -255 -1 -463 2 -463 3 0 126 73 273 163 317 193 445 265 613 346 309
146 571 216 868 229 l142 7 -206 225 c-323 354 -487 525 -519 545 -38 24 -156
29 -250 11z"/>
<path d="M1248 2474 c-95 -22 -148 -57 -294 -187 -173 -155 -561 -529 -592
-571 l-23 -31 268 -7 c878 -22 1269 -92 1687 -299 55 -27 102 -46 105 -43 3 3
6 195 6 427 0 475 2 460 -76 517 -95 68 -411 166 -634 195 -143 19 -369 18
-447 -1z"/>
<path d="M4005 1844 c-299 -46 -563 -137 -794 -275 -88 -53 -283 -190 -278
-195 2 -2 32 5 68 16 89 27 282 66 419 84 207 28 389 36 798 36 221 0 402 3
401 8 0 4 -17 21 -38 39 -82 70 -351 87 -721 45 -358 -40 -366 -39 -178 22
194 64 416 98 716 112 l154 6 -33 34 c-57 59 -79 64 -291 69 -106 2 -206 1
-223 -1z"/>
<path d="M695 1511 c-44 -4 93 -19 500 -53 308 -26 561 -45 563 -43 6 6 -212
54 -313 69 -209 31 -572 44 -750 27z"/>
<path d="M4040 1380 c-286 -18 -575 -67 -822 -140 -255 -75 -310 -69 610 -69
l822 -1 0 99 c0 55 -4 102 -8 105 -16 10 -469 14 -602 6z"/>
<path d="M521 1369 c-200 -15 -221 -29 -224 -152 -2 -75 20 -97 97 -97 145 0
1666 50 1694 56 17 4 32 11 32 15 0 33 -450 130 -761 164 -176 20 -652 27
-838 14z"/>
<path d="M4817 1070 c-38 -82 -80 -90 -397 -74 -1372 69 -1537 73 -1719 35
-137 -28 -208 -26 -451 15 l-165 27 -795 -23 c-675 -19 -1069 -22 -1129 -8 -8
2 -46 -38 -87 -92 -62 -80 -71 -97 -60 -108 11 -12 91 -10 497 12 617 33 888
43 1667 61 426 10 684 20 789 31 183 20 255 16 1381 -64 358 -26 652 -44 652
-40 0 8 -146 248 -158 259 -4 4 -15 -10 -25 -31z"/>
</g>
</svg>
